<svg width="48" height="48" viewBox="0 0 48 48" fill="none" xmlns="http://www.w3.org/2000/svg" class="menubar-logo__pic" data-v-02aaada5=""><path d="M0 24C0 15.0683 0 10.6024 1.90722 7.26944C3.18508 5.0363 5.0363 3.18508 7.26944 1.90722C10.6024 0 15.0683 0 24 0C32.9316 0 37.3977 0 40.7305 1.90722C42.9636 3.18508 44.815 5.0363 46.0928 7.26944C48 10.6024 48 15.0683 48 24C48 32.9316 48 37.3977 46.0928 40.7305C44.815 42.9636 42.9636 44.815 40.7305 46.0928C37.3977 48 32.9316 48 24 48C15.0683 48 10.6024 48 7.26944 46.0928C5.0363 44.815 3.18508 42.9636 1.90722 40.7305C0 37.3977 0 32.9316 0 24Z" style="fill: #4271fe;"></path><path d="M21.2066 19.3948C22.7396 19.3948 24.1056 19.7289 25.3046 20.3971C26.5231 21.0653 27.4764 22.0086 28.1643 23.2271C28.8522 24.4456 29.1961 25.8508 29.1961 27.4426C29.1961 29.0345 28.8522 30.4496 28.1643 31.6878C27.4764 32.9062 26.5231 33.8495 25.3046 34.5177C24.1056 35.1858 22.7396 35.52 21.2066 35.52C20.1256 35.52 19.133 35.3334 18.2289 34.9598C17.3445 34.5865 16.5976 34.0263 15.9883 33.2795V35.3137H12.48V13.44H16.1652V21.4878C16.7941 20.8 17.5312 20.2792 18.3763 19.9254C19.2411 19.5717 20.1845 19.3948 21.2066 19.3948ZM20.7938 32.3657C22.15 32.3657 23.2605 31.9137 24.1253 31.0098C25.0097 30.1055 25.452 28.9166 25.452 27.4426C25.452 25.9687 25.0097 24.7797 24.1253 23.8756C23.2605 22.9716 22.15 22.5196 20.7938 22.5196C19.9094 22.5196 19.1134 22.726 18.4058 23.1387C17.6983 23.5317 17.1381 24.1017 16.7254 24.8485C16.3126 25.5953 16.1062 26.46 16.1062 27.4426C16.1062 28.4253 16.3126 29.29 16.7254 30.037C17.1381 30.7835 17.6983 31.3634 18.4058 31.776C19.1134 32.1692 19.9094 32.3657 20.7938 32.3657Z" fill="white"></path><path d="M33.5825 35.52C32.9143 35.52 32.3443 35.294 31.8726 34.8421C31.401 34.3704 31.1652 33.7807 31.1652 33.0732C31.1652 32.3461 31.3911 31.7563 31.8431 31.3044C32.3148 30.8524 32.8947 30.6264 33.5825 30.6264C34.2706 30.6264 34.8406 30.8524 35.2926 31.3044C35.7642 31.7563 36 32.3461 36 33.0732C36 33.7807 35.7642 34.3704 35.2926 34.8421C34.8209 35.294 34.2509 35.52 33.5825 35.52Z" fill="white"></path></svg>